<svg xmlns="http://www.w3.org/2000/svg" width="64" height="64" version="1">
<path fill-rule="evenodd" clip-rule="evenodd" d="M15 0C10.568 0 7 3.568 7 8V56C7 60.432 10.568 64 15 64H49.6667C54.0987 64 57.6667 60.432 57.6667 56V24L33.6667 0H15ZM40.3333 0L57.6667 17.3333V0H40.3333Z" fill="url(#paint0_linear_2_47)"/>
<path fill-rule="evenodd" clip-rule="evenodd" d="M7 54.6667V56C7 60.432 10.568 64 15 64H49.6667C54.0987 64 57.6667 60.432 57.6667 56V54.6667C57.6667 59.0987 54.0987 62.6667 49.6667 62.6667H15C10.568 62.6667 7 59.0987 7 54.6667Z" fill="black" fill-opacity="0.19933"/>
<path fill-rule="evenodd" clip-rule="evenodd" d="M40.3333 0L57.6667 17.3333V15.4667L42.2 0H40.3333Z" fill="black" fill-opacity="0.1982"/>
<path fill-rule="evenodd" clip-rule="evenodd" d="M32.588 25.3333L23.6661 43.1773L18.7443 33.3336H16.9995C16.8226 33.3336 16.6531 33.4038 16.5281 33.5289C16.403 33.6539 16.3328 33.8235 16.3328 34.0003C16.3328 34.1771 16.403 34.3466 16.5281 34.4717C16.6531 34.5967 16.8226 34.6669 16.9995 34.6669H17.9213L23.6661 46.1565L33.4109 26.6672H47.6656C47.8424 26.6672 48.012 26.597 48.137 26.4719C48.262 26.3469 48.3323 26.1773 48.3323 26.0005C48.3323 25.8237 48.262 25.6541 48.137 25.5291C48.012 25.4041 47.8424 25.3339 47.6656 25.3339L32.588 25.3333Z" fill="#FAFAFA"/>
<path d="M23.6667 48H17C16.6318 48 16.3333 48.2985 16.3333 48.6667C16.3333 49.0349 16.6318 49.3333 17 49.3333H23.6667C24.0349 49.3333 24.3333 49.0349 24.3333 48.6667C24.3333 48.2985 24.0349 48 23.6667 48Z" fill="#FAFAFA"/>
<path d="M47.6667 48H41C40.6318 48 40.3333 48.2985 40.3333 48.6667C40.3333 49.0349 40.6318 49.3333 41 49.3333H47.6667C48.0349 49.3333 48.3333 49.0349 48.3333 48.6667C48.3333 48.2985 48.0349 48 47.6667 48Z" fill="#FAFAFA"/>
<path d="M35.6667 48H29C28.6318 48 28.3333 48.2985 28.3333 48.6667C28.3333 49.0349 28.6318 49.3333 29 49.3333H35.6667C36.0349 49.3333 36.3333 49.0349 36.3333 48.6667C36.3333 48.2985 36.0349 48 35.6667 48Z" fill="#FAFAFA"/>
<path fill-rule="evenodd" clip-rule="evenodd" d="M36.1253 32.016C35.8471 32.0603 35.59 32.1915 35.391 32.391C35.141 32.641 35.0005 32.9801 35.0005 33.3337C35.0005 33.6873 35.141 34.0264 35.391 34.2765L39.115 38.0005L35.391 41.7245C35.141 41.9745 35.0005 42.3136 35.0005 42.6672C35.0005 43.0208 35.141 43.3599 35.391 43.6099C35.641 43.8599 35.9801 44.0004 36.3337 44.0004C36.6873 44.0004 37.0264 43.8599 37.2764 43.6099L41.0004 39.8859L44.7244 43.6099C44.9745 43.8599 45.3136 44.0004 45.6672 44.0004C46.0207 44.0004 46.3598 43.8599 46.6099 43.6099C46.8599 43.3599 47.0003 43.0208 47.0003 42.6672C47.0003 42.3136 46.8599 41.9745 46.6099 41.7245L42.8859 38.0005L46.6099 34.2765C46.8599 34.0264 47.0003 33.6873 47.0003 33.3337C47.0003 32.9801 46.8599 32.641 46.6099 32.391C46.3598 32.141 46.0207 32.0005 45.6672 32.0005C45.3136 32.0005 44.9745 32.141 44.7244 32.391L41.0004 36.115L37.2764 32.391C37.1278 32.2421 36.946 32.1305 36.7459 32.0653C36.5459 32.0002 36.3332 31.9832 36.1253 32.016Z" fill="#FDA8B3"/>
<defs>
<linearGradient id="paint0_linear_2_47" x1="8.33333" y1="62.6667" x2="56.3333" y2="1.33333" gradientUnits="userSpaceOnUse">
<stop stop-color="#C10018"/>
<stop offset="1" stop-color="#FF5A96"/>
</linearGradient>
</defs>
</svg>
