<svg xmlns="http://www.w3.org/2000/svg" width="64" height="64" version="1">
<path fill-rule="evenodd" clip-rule="evenodd" d="M15 0C10.568 0 7 3.568 7 8V56C7 60.432 10.568 64 15 64H49.6667C54.0987 64 57.6667 60.432 57.6667 56V24L33.6667 0H15ZM40.3333 0L57.6667 17.3333V0H40.3333Z" fill="url(#paint0_linear_2_47)"/>
<path fill-rule="evenodd" clip-rule="evenodd" d="M7 54.6667V56C7 60.432 10.568 64 15 64H49.6667C54.0987 64 57.6667 60.432 57.6667 56V54.6667C57.6667 59.0987 54.0987 62.6667 49.6667 62.6667H15C10.568 62.6667 7 59.0987 7 54.6667Z" fill="black" fill-opacity="0.19933"/>
<path fill-rule="evenodd" clip-rule="evenodd" d="M40.3333 0L57.6667 17.3333V15.4667L42.2 0H40.3333Z" fill="black" fill-opacity="0.1982"/>
<path d="M24.3333 41.3333C28.7516 41.3333 32.3333 37.7516 32.3333 33.3333C32.3333 28.9151 28.7516 25.3333 24.3333 25.3333C19.9151 25.3333 16.3333 28.9151 16.3333 33.3333C16.3333 37.7516 19.9151 41.3333 24.3333 41.3333Z" fill="#FAFAFA"/>
<path fill-rule="evenodd" clip-rule="evenodd" d="M36.3333 29.3333C35.5947 29.3333 35 29.928 35 30.6667V41.3333C35 42.072 35.5947 42.6667 36.3333 42.6667H47C47.7387 42.6667 48.3333 42.072 48.3333 41.3333V30.6667C48.3333 29.928 47.7387 29.3333 47 29.3333H36.3333ZM36.3333 30.6667H47V41.3333H36.3333V30.6667Z" fill="#FAFAFA"/>
<path fill-rule="evenodd" clip-rule="evenodd" d="M31.0003 32.488L40.0592 48.1787C40.1268 48.2957 40.1624 48.4284 40.1624 48.5636C40.1624 48.6987 40.1268 48.8314 40.0592 48.9485C39.9917 49.0655 39.8945 49.1627 39.7775 49.2302C39.6604 49.2978 39.5277 49.3334 39.3926 49.3334H21.2752C21.1401 49.3334 21.0074 49.2978 20.8903 49.2302C20.7733 49.1627 20.6761 49.0655 20.6086 48.9485C20.541 48.8314 20.5054 48.6987 20.5054 48.5636C20.5054 48.4284 20.541 48.2957 20.6086 48.1787L29.6675 32.488C29.7351 32.371 29.8322 32.2738 29.9493 32.2062C30.0663 32.1387 30.199 32.1031 30.3342 32.1031C30.4693 32.1031 30.602 32.1387 30.7191 32.2062C30.8361 32.2738 30.9327 32.371 31.0003 32.488Z" fill="#F9E186"/>
<defs>
<linearGradient id="paint0_linear_2_47" x1="8.33333" y1="62.6667" x2="56.3333" y2="1.33333" gradientUnits="userSpaceOnUse">
<stop stop-color="#CB6D30"/>
<stop offset="1" stop-color="#FFFB57"/>
</linearGradient>
</defs>
</svg>
