<svg xmlns="http://www.w3.org/2000/svg" width="64" height="64" version="1">
<path fill-rule="evenodd" clip-rule="evenodd" d="M15 0C10.568 0 7 3.568 7 8V56C7 60.432 10.568 64 15 64H49.6667C54.0987 64 57.6667 60.432 57.6667 56V24L33.6667 0H15ZM40.3333 0L57.6667 17.3333V0H40.3333Z" fill="url(#paint0_linear_2_47)"/>
<path fill-rule="evenodd" clip-rule="evenodd" d="M7 54.6667V56C7 60.432 10.568 64 15 64H49.6667C54.0987 64 57.6667 60.432 57.6667 56V54.6667C57.6667 59.0987 54.0987 62.6667 49.6667 62.6667H15C10.568 62.6667 7 59.0987 7 54.6667Z" fill="black" fill-opacity="0.19933"/>
<path fill-rule="evenodd" clip-rule="evenodd" d="M40.3333 0L57.6667 17.3333V15.4667L42.2 0H40.3333Z" fill="black" fill-opacity="0.1982"/>
<path fill-rule="evenodd" clip-rule="evenodd" d="M15 5.33333C13.5227 5.33333 12.3333 6.52267 12.3333 8V54.6667C12.3333 56.144 13.5227 57.3333 15 57.3333H49.6667C51.144 57.3333 52.3333 56.144 52.3333 54.6667V26.3333L31.3333 5.33333H15Z" fill="url(#paint1_linear_2_47)"/>
<path fill-rule="evenodd" clip-rule="evenodd" d="M26.776 5.33333C26.0543 7.48249 25.6798 9.73295 25.6666 12C25.6666 17.658 27.9142 23.0842 31.915 27.0849C35.9158 31.0857 41.342 33.3333 47 33.3333C48.8008 33.3207 50.5929 33.0801 52.3333 32.6172V26.3333L31.3333 5.33332L26.776 5.33333Z" fill="url(#paint2_radial_2_47)"/>
<path fill-rule="evenodd" clip-rule="evenodd" d="M31.3333 5.33333L52.3333 26.3333H31.3333V5.33333Z" fill="#FAFAFA"/>
<defs>
<linearGradient id="paint0_linear_2_47" x1="8.33333" y1="62.6667" x2="56.3333" y2="1.33333" gradientUnits="userSpaceOnUse">
<stop stop-color="#4B4B4B"/>
<stop offset="1" stop-color="#969696"/>
</linearGradient>
<linearGradient id="paint1_linear_2_47" x1="51" y1="56" x2="13.6667" y2="6.66667" gradientUnits="userSpaceOnUse">
<stop stop-color="#FAFAFA" stop-opacity="0.80141"/>
<stop offset="1" stop-color="#FAFAFA"/>
</linearGradient>
<radialGradient id="paint2_radial_2_47" cx="0" cy="0" r="1" gradientUnits="userSpaceOnUse" gradientTransform="translate(47 12) rotate(180) scale(21.3333)">
<stop stop-opacity="0.29564"/>
<stop offset="1" stop-opacity="0"/>
</radialGradient>
</defs>
</svg>
