<svg xmlns="http://www.w3.org/2000/svg" width="64" height="64" version="1">
<path fill-rule="evenodd" clip-rule="evenodd" d="M15 0C10.568 0 7 3.568 7 8V56C7 60.432 10.568 64 15 64H49.6667C54.0987 64 57.6667 60.432 57.6667 56V24L33.6667 0H15ZM40.3333 0L57.6667 17.3333V0H40.3333Z" fill="url(#paint0_linear_2_47)"/>
<path fill-rule="evenodd" clip-rule="evenodd" d="M7 54.6667V56C7 60.432 10.568 64 15 64H49.6667C54.0987 64 57.6667 60.432 57.6667 56V54.6667C57.6667 59.0987 54.0987 62.6667 49.6667 62.6667H15C10.568 62.6667 7 59.0987 7 54.6667Z" fill="black" fill-opacity="0.19933"/>
<path fill-rule="evenodd" clip-rule="evenodd" d="M40.3333 0L57.6667 17.3333V15.4667L42.2 0H40.3333Z" fill="black" fill-opacity="0.1982"/>
<path fill-rule="evenodd" clip-rule="evenodd" d="M17.6667 25.3333C16.928 25.3333 16.3333 25.928 16.3333 26.6667V41.3333C16.3333 42.072 16.928 42.6667 17.6667 42.6667H31V41.3333H25.6667V38.6667H31V37.3333H25.6667V34.6667H32.3333V36H33.6667V34.6667H40.3333V36H41.6667V26.6667C41.6667 25.928 41.072 25.3333 40.3333 25.3333H17.6667ZM17.6667 26.6667H24.3333V29.3333H17.6667V26.6667ZM25.6667 26.6667H32.3333V29.3333H25.6667V26.6667ZM33.6667 26.6667H40.3333V29.3333H33.6667V26.6667ZM17.6667 30.6667H24.3333V33.3333H17.6667V30.6667ZM25.6667 30.6667H32.3333V33.3333H25.6667V30.6667ZM33.6667 30.6667H40.3333V33.3333H33.6667V30.6667ZM17.6667 34.6667H24.3333V37.3333H17.6667V34.6667ZM17.6667 38.6667H24.3333V41.3333H17.6667V38.6667Z" fill="#FAFAFA"/>
<path fill-rule="evenodd" clip-rule="evenodd" d="M32.3333 36C31.5947 36 31 36.5947 31 37.3333V48C31 48.7387 31.5947 49.3333 32.3333 49.3333H47C47.7387 49.3333 48.3333 48.7387 48.3333 48V37.3333C48.3333 36.5947 47.7387 36 47 36H32.3333ZM36.3333 37.3333H39V48H36.3333V37.3333ZM32.3333 40H35V48H32.3333V40ZM44.3333 42.6667H47V48H44.3333V42.6667ZM40.3333 45.3333H43V48H40.3333V45.3333Z" fill="#B4F48B"/>
<defs>
<linearGradient id="paint0_linear_2_47" x1="8.33333" y1="62.6667" x2="56.3333" y2="1.33333" gradientUnits="userSpaceOnUse">
<stop stop-color="#007C3C"/>
<stop offset="1" stop-color="#78FC4E"/>
</linearGradient>
</defs>
</svg>
