<svg xmlns="http://www.w3.org/2000/svg" width="64" height="64" version="1">
<path fill-rule="evenodd" clip-rule="evenodd" d="M15 0C10.568 0 7 3.568 7 8V56C7 60.432 10.568 64 15 64H49.6667C54.0987 64 57.6667 60.432 57.6667 56V24L33.6667 0H15ZM40.3333 0L57.6667 17.3333V0H40.3333Z" fill="url(#paint0_linear_2_47)"/>
<path d="M29 48H17C16.6318 48 16.3333 48.2985 16.3333 48.6667C16.3333 49.0349 16.6318 49.3333 17 49.3333H29C29.3682 49.3333 29.6667 49.0349 29.6667 48.6667C29.6667 48.2985 29.3682 48 29 48Z" fill="#FAFAFA"/>
<path d="M29 25.3333H17C16.6318 25.3333 16.3333 25.6318 16.3333 26C16.3333 26.3682 16.6318 26.6667 17 26.6667H29C29.3682 26.6667 29.6667 26.3682 29.6667 26C29.6667 25.6318 29.3682 25.3333 29 25.3333Z" fill="#FAFAFA"/>
<path d="M29 29.3333H17C16.6318 29.3333 16.3333 29.6318 16.3333 30C16.3333 30.3682 16.6318 30.6667 17 30.6667H29C29.3682 30.6667 29.6667 30.3682 29.6667 30C29.6667 29.6318 29.3682 29.3333 29 29.3333Z" fill="#FAFAFA"/>
<path d="M29 33.3333H17C16.6318 33.3333 16.3333 33.6318 16.3333 34C16.3333 34.3682 16.6318 34.6667 17 34.6667H29C29.3682 34.6667 29.6667 34.3682 29.6667 34C29.6667 33.6318 29.3682 33.3333 29 33.3333Z" fill="#FAFAFA"/>
<path d="M47.6667 44H17C16.6318 44 16.3333 44.2985 16.3333 44.6667C16.3333 45.0349 16.6318 45.3333 17 45.3333H47.6667C48.0349 45.3333 48.3333 45.0349 48.3333 44.6667C48.3333 44.2985 48.0349 44 47.6667 44Z" fill="#FAFAFA"/>
<path d="M47.6667 40H17C16.6318 40 16.3333 40.2985 16.3333 40.6667C16.3333 41.0349 16.6318 41.3333 17 41.3333H47.6667C48.0349 41.3333 48.3333 41.0349 48.3333 40.6667C48.3333 40.2985 48.0349 40 47.6667 40Z" fill="#FAFAFA"/>
<path fill-rule="evenodd" clip-rule="evenodd" d="M36.3333 25.3333C35.5947 25.3333 35 25.928 35 26.6667V33.3333C35 34.072 35.5947 34.6667 36.3333 34.6667H47C47.7387 34.6667 48.3333 34.072 48.3333 33.3333V26.6667C48.3333 25.928 47.7387 25.3333 47 25.3333H36.3333ZM45.6667 26.6667C46.0203 26.6667 46.3594 26.8071 46.6095 27.0572C46.8595 27.3072 47 27.6464 47 28C47 28.3536 46.8595 28.6928 46.6095 28.9428C46.3594 29.1929 46.0203 29.3333 45.6667 29.3333C45.313 29.3333 44.9739 29.1929 44.7239 28.9428C44.4738 28.6928 44.3333 28.3536 44.3333 28C44.3333 27.6464 44.4738 27.3072 44.7239 27.0572C44.9739 26.8071 45.313 26.6667 45.6667 26.6667ZM39.2396 28.6615C39.3697 28.6583 39.4992 28.6816 39.62 28.7299C39.7409 28.7783 39.8507 28.8507 39.9427 28.9427L44.3334 33.3334H36.3334L38.4037 29.1927C38.4816 29.0366 38.6006 28.9047 38.7479 28.8111C38.8952 28.7175 39.0652 28.6658 39.2396 28.6615Z" fill="#9AE9F9"/>
<path fill-rule="evenodd" clip-rule="evenodd" d="M7 54.6667V56C7 60.432 10.568 64 15 64H49.6667C54.0987 64 57.6667 60.432 57.6667 56V54.6667C57.6667 59.0987 54.0987 62.6667 49.6667 62.6667H15C10.568 62.6667 7 59.0987 7 54.6667Z" fill="black" fill-opacity="0.19933"/>
<path fill-rule="evenodd" clip-rule="evenodd" d="M40.3333 0L57.6667 17.3333V15.4667L42.2 0H40.3333Z" fill="black" fill-opacity="0.1982"/>
<defs>
<linearGradient id="paint0_linear_2_47" x1="8.33333" y1="62.6667" x2="56.3333" y2="1.33333" gradientUnits="userSpaceOnUse">
<stop stop-color="#083FA6"/>
<stop offset="1" stop-color="#2DCBFD"/>
</linearGradient>
</defs>
</svg>
