<svg xmlns="http://www.w3.org/2000/svg" width="64" height="64" version="1">
<path fill-rule="evenodd" clip-rule="evenodd" d="M15 0C10.568 0 7 3.568 7 8V56C7 60.432 10.568 64 15 64H49.6667C54.0987 64 57.6667 60.432 57.6667 56V24L33.6667 0H15ZM40.3333 0L57.6667 17.3333V0H40.3333Z" fill="url(#paint0_linear_2_47)"/>
<path fill-rule="evenodd" clip-rule="evenodd" d="M7 54.6667V56C7 60.432 10.568 64 15 64H49.6667C54.0987 64 57.6667 60.432 57.6667 56V54.6667C57.6667 59.0987 54.0987 62.6667 49.6667 62.6667H15C10.568 62.6667 7 59.0987 7 54.6667Z" fill="black" fill-opacity="0.19933"/>
<path fill-rule="evenodd" clip-rule="evenodd" d="M40.3333 0L57.6667 17.3333V15.4667L42.2 0H40.3333Z" fill="black" fill-opacity="0.1982"/>
<path d="M47.6667 25.3333H17C16.6318 25.3333 16.3333 25.6318 16.3333 26C16.3333 26.3682 16.6318 26.6667 17 26.6667H47.6667C48.0349 26.6667 48.3333 26.3682 48.3333 26C48.3333 25.6318 48.0349 25.3333 47.6667 25.3333Z" fill="#FAFAFA"/>
<path d="M43.6667 29.3333H21C20.6318 29.3333 20.3333 29.6318 20.3333 30C20.3333 30.3682 20.6318 30.6667 21 30.6667H43.6667C44.0349 30.6667 44.3333 30.3682 44.3333 30C44.3333 29.6318 44.0349 29.3333 43.6667 29.3333Z" fill="#FAFAFA"/>
<path fill-rule="evenodd" clip-rule="evenodd" d="M32.3333 37.3333C31.5947 37.3333 31 37.928 31 38.6667V48C31 48.7387 31.5947 49.3333 32.3333 49.3333H47C47.7387 49.3333 48.3333 48.7387 48.3333 48V38.6667C48.3333 37.928 47.7387 37.3333 47 37.3333H32.3333ZM45.4584 38.6823C45.6662 38.6495 45.8789 38.6664 46.0789 38.7316C46.279 38.7968 46.4608 38.9084 46.6094 39.0573C46.8594 39.3073 46.9999 39.6464 46.9999 40C46.9999 40.3536 46.8594 40.6927 46.6094 40.9427L41.0001 46.5521L38.3334 43.8854L34.6094 47.6094C34.3594 47.8594 34.0203 47.9998 33.6667 47.9998C33.3131 47.9998 32.974 47.8594 32.724 47.6094C32.474 47.3594 32.3335 47.0203 32.3335 46.6667C32.3335 46.3131 32.474 45.974 32.724 45.7239L38.3333 40.1146L41 42.7813L44.724 39.0573C44.923 38.8578 45.1801 38.7265 45.4584 38.6823Z" fill="#FECFB5"/>
<path d="M27.6667 38.6667H19.6667C19.2985 38.6667 19 38.9651 19 39.3333C19 39.7015 19.2985 40 19.6667 40H27.6667C28.0349 40 28.3333 39.7015 28.3333 39.3333C28.3333 38.9651 28.0349 38.6667 27.6667 38.6667Z" fill="#FAFAFA"/>
<path d="M27.6667 42.6667H19.6667C19.2985 42.6667 19 42.9651 19 43.3333C19 43.7015 19.2985 44 19.6667 44H27.6667C28.0349 44 28.3333 43.7015 28.3333 43.3333C28.3333 42.9651 28.0349 42.6667 27.6667 42.6667Z" fill="#FAFAFA"/>
<path d="M27.6667 46.6667H19.6667C19.2985 46.6667 19 46.9651 19 47.3333C19 47.7015 19.2985 48 19.6667 48H27.6667C28.0349 48 28.3333 47.7015 28.3333 47.3333C28.3333 46.9651 28.0349 46.6667 27.6667 46.6667Z" fill="#FAFAFA"/>
<path d="M17 40C17.3682 40 17.6667 39.7015 17.6667 39.3333C17.6667 38.9651 17.3682 38.6667 17 38.6667C16.6318 38.6667 16.3333 38.9651 16.3333 39.3333C16.3333 39.7015 16.6318 40 17 40Z" fill="#FAFAFA"/>
<path d="M17 44C17.3682 44 17.6667 43.7015 17.6667 43.3333C17.6667 42.9651 17.3682 42.6667 17 42.6667C16.6318 42.6667 16.3333 42.9651 16.3333 43.3333C16.3333 43.7015 16.6318 44 17 44Z" fill="#FAFAFA"/>
<path d="M17 48C17.3682 48 17.6667 47.7015 17.6667 47.3333C17.6667 46.9651 17.3682 46.6667 17 46.6667C16.6318 46.6667 16.3333 46.9651 16.3333 47.3333C16.3333 47.7015 16.6318 48 17 48Z" fill="#FAFAFA"/>
<defs>
<linearGradient id="paint0_linear_2_47" x1="8.33333" y1="62.6667" x2="56.3333" y2="1.33333" gradientUnits="userSpaceOnUse">
<stop stop-color="#D0120D"/>
<stop offset="1" stop-color="#FE9C45"/>
</linearGradient>
</defs>
</svg>
