<svg xmlns="http://www.w3.org/2000/svg" width="64" height="64" version="1">
<path fill-rule="evenodd" clip-rule="evenodd" d="M15 0C10.568 0 7 3.568 7 8V56C7 60.432 10.568 64 15 64H49.6667C54.0987 64 57.6667 60.432 57.6667 56V24L33.6667 0H15ZM40.3333 0L57.6667 17.3333V0H40.3333Z" fill="url(#paint0_linear_2_47)"/>
<path fill-rule="evenodd" clip-rule="evenodd" d="M7 54.6667V56C7 60.432 10.568 64 15 64H49.6667C54.0987 64 57.6667 60.432 57.6667 56V54.6667C57.6667 59.0987 54.0987 62.6667 49.6667 62.6667H15C10.568 62.6667 7 59.0987 7 54.6667Z" fill="black" fill-opacity="0.19933"/>
<path fill-rule="evenodd" clip-rule="evenodd" d="M40.3333 0L57.6667 17.3333V15.4667L42.2 0H40.3333Z" fill="black" fill-opacity="0.1982"/>
<path fill-rule="evenodd" clip-rule="evenodd" d="M24.3333 25.3333C22.2116 25.3333 20.1768 25.544 18.6765 25.9191C17.1762 26.2942 16.3333 26.8029 16.3333 27.3333V28.6667C16.3333 29.3739 17.1762 30.0522 18.6765 30.5523C20.1768 31.0524 22.2116 31.3333 24.3333 31.3333C26.4551 31.3333 28.4899 31.0524 29.9902 30.5523C31.4905 30.0522 32.3333 29.3739 32.3333 28.6667V27.3333C32.3333 26.8029 31.4905 26.2942 29.9902 25.9191C28.4899 25.544 26.4551 25.3333 24.3333 25.3333ZM16.3333 31.3333V35.3333C16.3333 36.4379 19.9151 37.3333 24.3333 37.3333C28.7516 37.3333 32.3333 36.4379 32.3333 35.3333V31.3333C32.3333 31.8638 31.4905 32.3725 29.9902 32.7475C28.4899 33.1226 26.4551 33.3333 24.3333 33.3333C22.2116 33.3333 20.1768 33.1226 18.6765 32.7475C17.1762 32.3725 16.3333 31.8638 16.3333 31.3333ZM16.3333 37.3333V41.3333C16.3333 42.4379 19.9151 43.3333 24.3333 43.3333C28.7516 43.3333 32.3333 42.4379 32.3333 41.3333V37.3333C32.3333 37.8638 31.4905 38.3725 29.9902 38.7475C28.4899 39.1226 26.4551 39.3333 24.3333 39.3333C22.2116 39.3333 20.1768 39.1226 18.6765 38.7475C17.1762 38.3725 16.3333 37.8638 16.3333 37.3333ZM16.3333 43.3333V47.3333C16.3333 48.4379 19.9151 49.3333 24.3333 49.3333C28.7516 49.3333 32.3333 48.4379 32.3333 47.3333V43.3333C32.3333 43.8638 31.4905 44.3725 29.9902 44.7475C28.4899 45.1226 26.4551 45.3333 24.3333 45.3333C22.2116 45.3333 20.1768 45.1226 18.6765 44.7475C17.1762 44.3725 16.3333 43.8638 16.3333 43.3333Z" fill="#FA9BFD"/>
<path fill-rule="evenodd" clip-rule="evenodd" d="M35 28C34.2613 28 33.6667 28.5947 33.6667 29.3333V48C33.6667 48.7387 34.2613 49.3333 35 49.3333H47C47.7387 49.3333 48.3333 48.7387 48.3333 48V29.3333C48.3333 28.5947 47.7387 28 47 28H35ZM35 29.3333H40.3333V34.6667H35V29.3333ZM41.6667 29.3333H47V34.6667H41.6667V29.3333ZM35 36H40.3333V41.3333H35V36ZM41.6667 36H47V41.3333H41.6667V36ZM35 42.6667H40.3333V48H35V42.6667ZM41.6667 42.6667H47V48H41.6667V42.6667Z" fill="#FAFAFA"/>
<defs>
<linearGradient id="paint0_linear_2_47" x1="8.33333" y1="62.6667" x2="56.3333" y2="1.33333" gradientUnits="userSpaceOnUse">
<stop stop-color="#7324A9"/>
<stop offset="1" stop-color="#FA51FD"/>
</linearGradient>
</defs>
</svg>
